{
    "asset" : {
        "generator" : "Khronos glTF Blender I/O v1.0.5",
        "version" : "2.0"
    },
    "scene" : 0,
    "scenes" : [
        {
            "name" : "Scene",
            "nodes" : [
                0
            ]
        }
    ],
    "nodes" : [
        {
            "mesh" : 0,
            "name" : "Mesh413 Garage2 Group1 Model.003"
        }
    ],
    "materials" : [
        {
            "doubleSided" : true,
            "emissiveFactor" : [
                1,
                1,
                1
            ],
            "emissiveTexture" : {
                "index" : 0,
                "texCoord" : 0
            },
            "name" : "Floor_01_Structure.001",
            "pbrMetallicRoughness" : {
                "baseColorFactor" : [
                    0.800000011920929,
                    0.800000011920929,
                    0.800000011920929,
                    1
                ],
                "metallicFactor" : 0,
                "roughnessFactor" : 0.5
            }
        }
    ],
    "meshes" : [
        {
            "name" : "Mesh413 Garage2 Group1 Model.005",
            "primitives" : [
                {
                    "attributes" : {
                        "POSITION" : 0,
                        "NORMAL" : 1,
                        "TEXCOORD_0" : 2
                    },
                    "indices" : 3,
                    "material" : 0
                }
            ]
        }
    ],
    "textures" : [
        {
            "source" : 0
        }
    ],
    "images" : [
        {
            "mimeType" : "image/jpeg",
            "name" : "Floor_01_Structure_02",
            "uri" : "Floor_01_Structure_02.jpg"
        }
    ],
    "accessors" : [
        {
            "bufferView" : 0,
            "componentType" : 5126,
            "count" : 17125,
            "max" : [
                24.239587783813477,
                9.780872344970703,
                14.969404220581055
            ],
            "min" : [
                -24.360422134399414,
                0.004196643829345703,
                -30.030607223510742
            ],
            "type" : "VEC3"
        },
        {
            "bufferView" : 1,
            "componentType" : 5126,
            "count" : 17125,
            "type" : "VEC3"
        },
        {
            "bufferView" : 2,
            "componentType" : 5126,
            "count" : 17125,
            "type" : "VEC2"
        },
        {
            "bufferView" : 3,
            "componentType" : 5123,
            "count" : 26145,
            "type" : "SCALAR"
        }
    ],
    "bufferViews" : [
        {
            "buffer" : 0,
            "byteLength" : 205500,
            "byteOffset" : 0
        },
        {
            "buffer" : 0,
            "byteLength" : 205500,
            "byteOffset" : 205500
        },
        {
            "buffer" : 0,
            "byteLength" : 137000,
            "byteOffset" : 411000
        },
        {
            "buffer" : 0,
            "byteLength" : 52290,
            "byteOffset" : 548000
        }
    ],
    "buffers" : [
        {
            "byteLength" : 600292,
            "uri" : "House_GLTF_Test_001.bin"
        }
    ]
}
